<svg id="Layer_1" data-name="Layer 1" xmlns="http://www.w3.org/2000/svg" viewBox="0 0 1920 1080"><defs><style>.cls-1{fill:none;stroke:#f7ce0f;stroke-miterlimit:10;stroke-width:20px;}.cls-2{fill:#3b65b0;}.cls-3{fill:#262626;}</style></defs><title>ICARC-Logo-color-svg</title><path class="cls-1" d="M161.05,379.54h49.88l61.44-75.79,35-65.07,89.74-12.24,40.79,35.9,192.53-90,71.8,65.27,45.68,4.35,311.93-207,308.09,252.7,117.48,42.42L1540.87,379l144.77.6"/><circle class="cls-1" cx="1698.65" cy="379.6" r="20.64"/><circle class="cls-1" cx="146.37" cy="379.54" r="20.37"/><path class="cls-1" d="M1317.12,246.14l2.56,99.18,65.92,25.48"/><circle class="cls-1" cx="1404.28" cy="379.54" r="20.64" transform="translate(-42.66 229.84) rotate(-9.22)"/><path class="cls-1" d="M1203.93,155.51v64.07l-52.23,12.88v77.81l53.76,69.27h69.13"/><circle class="cls-1" cx="1287.66" cy="379.54" r="20.64" transform="translate(-44.17 211.16) rotate(-9.22)"/><path class="cls-1" d="M1105.57,72.45q.2,33.09.38,66.16l-46.42,23V307.59"/><circle class="cls-1" cx="1059.53" cy="325.47" r="20.64" transform="translate(-43.9 430.24) rotate(-22.5)"/><path class="cls-1" d="M976.56,90.18V275.34l-103,91.23"/><circle class="cls-1" cx="857.55" cy="379.54" r="20.64" transform="translate(-79.97 357.07) rotate(-22.5)"/><path class="cls-1" d="M856.69,165.76q.07,32.25.16,64.51l35.33,18.44"/><circle class="cls-1" cx="904.44" cy="257.95" r="20.64" transform="translate(-29.87 365.75) rotate(-22.5)"/><path class="cls-1" d="M783.09,218.58V325.47l-64.57,54.07"/><circle class="cls-1" cx="704.28" cy="389.89" r="20.64" transform="translate(-95.59 299.2) rotate(-22.5)"/><path class="cls-1" d="M660.5,199.67l-.35,107.92q-27.66,16.5-55.3,33v38.93"/><circle class="cls-1" cx="604.85" cy="396.77" r="20.64" transform="translate(-105.8 261.67) rotate(-22.5)"/><path class="cls-1" d="M522.47,224.83l-.57,49,30,25.23"/><circle class="cls-1" cx="563.37" cy="308.87" r="20.64" transform="translate(-75.32 239.11) rotate(-22.5)"/><path class="cls-1" d="M467,248.71V346l16.46,12.29"/><circle class="cls-1" cx="500.15" cy="370.73" r="20.64" transform="translate(-103.8 219.62) rotate(-22.5)"/><path class="cls-1" d="M365.83,230.7v58.91l42,28v79.51"/><path class="cls-1" d="M261.66,317l47.1,30.56v26.53"/><circle class="cls-1" cx="308.76" cy="394.69" r="20.64" transform="translate(-127.54 148.2) rotate(-22.5)"/><circle class="cls-1" cx="407.84" cy="415.33" r="20.64" transform="translate(-127.9 187.69) rotate(-22.5)"/><path class="cls-2" d="M223,475.35V962.22H130.29V475.35Z"/><path class="cls-2" d="M616.53,820.49c-2.29,24.61-12.2,150.11-155.64,150.11C313.9,970.6,297,849,297,718.14c0-157.66,49.1-250.54,169.4-250.54,137.08,0,147.72,110.73,149.83,149.69H524.7c-1.44-16.56-2.66-75.75-59.72-75.75-58.12,0-72.27,67-72.27,178.41,0,91.81,9.72,178,69.71,178,55.16,0,59.58-58.79,61.88-77.44Z"/><path class="cls-2" d="M764,839.68,738.3,962.22H645.58L765.29,475.35H885.43l121,486.87H909.34L883.58,839.68ZM867.11,764c-19.28-93.18-34.72-161.28-42.85-207.77h-2.2c-6.29,44.82-22.67,118-41.71,207.77Z"/><path class="cls-2" d="M1143.59,754.62v207.6h-92V475.35h158.3c94,0,147.23,46.14,147.23,133,0,70.4-40,100.8-67,110.87,40,17.65,59,49.68,59,121.58v19.43c0,55.33,2.78,76,7,102h-89.54c-7.55-22.31-8.89-60.84-8.89-102.78V841.7c0-65.07-15.87-87.08-74.3-87.08Zm0-70.6H1187c55.9,0,77.75-22.64,77.75-71.86,0-41.93-21.27-66.22-68.64-66.22h-52.53Z"/><path class="cls-2" d="M1732.44,820.49c-2.29,24.61-12.19,150.11-155.64,150.11-147,0-163.86-121.63-163.86-252.46,0-157.66,49.09-250.54,169.39-250.54,137.09,0,147.73,110.73,149.84,149.69h-91.56c-1.44-16.56-2.66-75.75-59.71-75.75-58.12,0-72.27,67-72.27,178.41,0,91.81,9.71,178,69.7,178,55.16,0,59.59-58.79,61.88-77.44Z"/><path class="cls-3" d="M147.09,1008.62v37.62h-2.83v-37.62Z"/><path class="cls-3" d="M159.74,1026.14c0-2.36,0-4.62-.05-6.77h2.57c.1.86.16,4.35.1,5.11,1.16-2.74,3.31-5.75,8.71-5.75,4.67,0,8.81,2.68,8.81,10.1v17.41h-2.62v-17c0-4.78-1.94-7.9-6.5-7.9-6.25,0-8.4,5.32-8.4,11.18v13.7h-2.62Z"/><path class="cls-3" d="M188,1019.37h4.87V1011h2.63v8.38h6.24v2.53h-6.24v17.46c0,3,.63,4.73,3.15,4.73a9.62,9.62,0,0,0,2.72-.32v2.36a8.91,8.91,0,0,1-3.25.49c-3.36,0-5.25-1.72-5.25-6v-18.7H188Z"/><path class="cls-3" d="M211,1033.13c.06,6.93,3.47,11.23,8.5,11.23s6.61-2.85,7.56-5h2.67c-1.1,3.55-3.88,7.58-10.33,7.58-8,0-11.07-7-11.07-13.87,0-7.68,3.72-14.29,11.38-14.29,8.08,0,10.65,7.14,10.65,12.19,0,.76,0,1.51,0,2.21Zm16.63-2.37c-.05-5.32-2.88-9.51-8-9.51-5.41,0-7.87,3.87-8.45,9.51Z"/><path class="cls-3" d="M240.37,1026.68c0-4.52-.05-6.45-.05-7.31h2.57c.05.86.11,2.58.11,6a9.93,9.93,0,0,1,9.12-6.66v2.9c-5.45.37-9.12,4.24-9.12,10.64v14h-2.63Z"/><path class="cls-3" d="M260.41,1026.14c0-2.36,0-4.62-.05-6.77h2.57c.11.86.16,4.35.11,5.11,1.15-2.74,3.3-5.75,8.7-5.75,4.67,0,8.82,2.68,8.82,10.1v17.41h-2.63v-17c0-4.78-1.94-7.9-6.5-7.9-6.24,0-8.39,5.32-8.39,11.18v13.7h-2.63Z"/><path class="cls-3" d="M310.46,1041.14a31,31,0,0,0,.37,5.1h-2.52a17.8,17.8,0,0,1-.47-4.14c-.89,2-3.2,4.79-8.61,4.79-6.08,0-8.7-4-8.7-8.07,0-5.91,4.45-8.59,12.32-8.59h5v-2.74c0-2.69-.79-6.29-6.77-6.29-5.3,0-6.09,2.85-6.66,5h-2.62c.31-3,2.09-7.52,9.33-7.52,6,0,9.34,2.58,9.34,8.49Zm-2.57-8.6h-5.14c-5.82,0-9.44,1.56-9.44,6.18,0,3.38,2.36,5.69,6,5.69,7.5,0,8.55-5.1,8.55-10.91Z"/><path class="cls-3" d="M318.54,1019.37h4.88V1011H326v8.38h6.25v2.53H326v17.46c0,3,.63,4.73,3.15,4.73a9.64,9.64,0,0,0,2.73-.32v2.36a8.91,8.91,0,0,1-3.25.49c-3.36,0-5.25-1.72-5.25-6v-18.7h-4.88Z"/><path class="cls-3" d="M341.26,1006.63h2.62v5.22h-2.62Zm0,12.74h2.62v26.87h-2.62Z"/><path class="cls-3" d="M377.35,1032.75c0,7.47-4,14.14-11.86,14.14-7.08,0-11.49-6-11.49-14.08,0-7.69,4.15-14.08,11.76-14.08C372.73,1018.73,377.35,1024.31,377.35,1032.75Zm-20.57.06c0,6.39,3.36,11.55,8.92,11.55s8.87-4.78,8.87-11.55c0-6.35-3.15-11.56-9-11.56C359.62,1021.25,356.78,1026.36,356.78,1032.81Z"/><path class="cls-3" d="M387.47,1026.14c0-2.36,0-4.62-.05-6.77H390c.11.86.16,4.35.11,5.11,1.15-2.74,3.3-5.75,8.71-5.75,4.66,0,8.81,2.68,8.81,10.1v17.41H405v-17c0-4.78-1.95-7.9-6.51-7.9-6.24,0-8.39,5.32-8.39,11.18v13.7h-2.63Z"/><path class="cls-3" d="M437.52,1041.14a31,31,0,0,0,.37,5.1h-2.52a17.8,17.8,0,0,1-.47-4.14c-.89,2-3.2,4.79-8.6,4.79-6.09,0-8.71-4-8.71-8.07,0-5.91,4.46-8.59,12.33-8.59h5v-2.74c0-2.69-.79-6.29-6.77-6.29-5.3,0-6.08,2.85-6.66,5h-2.62c.31-3,2.09-7.52,9.33-7.52,6,0,9.34,2.58,9.34,8.49Zm-2.57-8.6h-5.14c-5.82,0-9.44,1.56-9.44,6.18,0,3.38,2.36,5.69,6,5.69,7.5,0,8.55-5.1,8.55-10.91Z"/><path class="cls-3" d="M449.8,1046.24v-39.61h2.62v39.61Z"/><path class="cls-3" d="M510.44,1036.19c-1.73,6-6,10.48-13.79,10.48-10.55,0-16.11-8.6-16.11-19.18,0-10.16,5.46-19.41,16.16-19.41,7.92,0,12.59,4.52,13.8,10.81h-2.84c-1.68-4.89-4.77-8.12-11.12-8.12-9.13,0-13,8.55-13,16.66s3.78,16.55,13.17,16.55c6,0,9-3.17,10.86-7.79Z"/><path class="cls-3" d="M542.23,1032.75c0,7.47-4,14.14-11.85,14.14-7.08,0-11.49-6-11.49-14.08,0-7.69,4.14-14.08,11.75-14.08C537.62,1018.73,542.23,1024.31,542.23,1032.75Zm-20.56.06c0,6.39,3.36,11.55,8.92,11.55s8.86-4.78,8.86-11.55c0-6.35-3.14-11.56-9-11.56C524.5,1021.25,521.67,1026.36,521.67,1032.81Z"/><path class="cls-3" d="M552.36,1026.14c0-2.36,0-4.62-.05-6.77h2.57c.1.86.16,4.35.1,5.11,1.16-2.74,3.31-5.75,8.71-5.75,4.67,0,8.81,2.68,8.81,10.1v17.41h-2.62v-17c0-4.78-1.94-7.9-6.5-7.9-6.25,0-8.4,5.32-8.4,11.18v13.7h-2.62Z"/><path class="cls-3" d="M585.41,1046.24V1021.9H580.9v-2.53h4.51v-3.82c0-4.51,1.26-9.45,7.13-9.45a9.71,9.71,0,0,1,2.57.37v2.58a12.93,12.93,0,0,0-2.83-.32c-3.09,0-4.25,2.26-4.25,6.93v3.71h5.72v2.53H588v24.34Z"/><path class="cls-3" d="M602.09,1033.13c.06,6.93,3.46,11.23,8.5,11.23s6.61-2.85,7.56-5h2.67c-1.1,3.55-3.88,7.58-10.33,7.58-8,0-11.07-7-11.07-13.87,0-7.68,3.72-14.29,11.38-14.29,8.08,0,10.65,7.14,10.65,12.19,0,.76,0,1.51-.05,2.21Zm16.63-2.37c-.05-5.32-2.88-9.51-8-9.51-5.41,0-7.87,3.87-8.45,9.51Z"/><path class="cls-3" d="M631.47,1026.68c0-4.52-.05-6.45-.05-7.31H634c0,.86.1,2.58.1,6a10,10,0,0,1,9.13-6.66v2.9c-5.45.37-9.13,4.24-9.13,10.64v14h-2.62Z"/><path class="cls-3" d="M652.25,1033.13c0,6.93,3.46,11.23,8.49,11.23s6.61-2.85,7.56-5H671c-1.1,3.55-3.88,7.58-10.33,7.58-8,0-11.07-7-11.07-13.87,0-7.68,3.73-14.29,11.38-14.29,8.08,0,10.65,7.14,10.65,12.19,0,.76,0,1.51-.05,2.21Zm16.63-2.37c-.06-5.32-2.89-9.51-8-9.51-5.4,0-7.87,3.87-8.45,9.51Z"/><path class="cls-3" d="M681.62,1026.14c0-2.36,0-4.62,0-6.77h2.57c.11.86.16,4.35.11,5.11,1.15-2.74,3.3-5.75,8.71-5.75,4.66,0,8.81,2.68,8.81,10.1v17.41h-2.62v-17c0-4.78-1.95-7.9-6.51-7.9-6.24,0-8.39,5.32-8.39,11.18v13.7h-2.63Z"/><path class="cls-3" d="M733.3,1038.34c-1.26,4.73-4.3,8.55-10.18,8.55-6.56,0-11.23-5-11.23-14,0-7.36,3.83-14.18,11.55-14.18a9.46,9.46,0,0,1,9.86,8.59h-2.68c-.78-3.11-2.78-6.07-7.24-6.07-5.56,0-8.71,4.84-8.71,11.56,0,6.39,2.94,11.55,8.45,11.55,3.83,0,6.14-2,7.5-6Z"/><path class="cls-3" d="M743.84,1033.13c.06,6.93,3.46,11.23,8.5,11.23s6.61-2.85,7.56-5h2.67c-1.1,3.55-3.88,7.58-10.33,7.58-8,0-11.07-7-11.07-13.87,0-7.68,3.72-14.29,11.38-14.29,8.08,0,10.65,7.14,10.65,12.19,0,.76,0,1.51-.05,2.21Zm16.63-2.37c-.05-5.32-2.88-9.51-8-9.51-5.41,0-7.87,3.87-8.45,9.51Z"/><path class="cls-3" d="M811.73,1032.75c0,7.47-4,14.14-11.86,14.14-7.08,0-11.49-6-11.49-14.08,0-7.69,4.15-14.08,11.75-14.08C807.11,1018.73,811.73,1024.31,811.73,1032.75Zm-20.57.06c0,6.39,3.36,11.55,8.92,11.55s8.87-4.78,8.87-11.55c0-6.35-3.15-11.56-9-11.56C794,1021.25,791.16,1026.36,791.16,1032.81Z"/><path class="cls-3" d="M821.85,1026.14c0-2.36,0-4.62-.05-6.77h2.57c.11.86.16,4.35.11,5.11,1.15-2.74,3.3-5.75,8.7-5.75,4.67,0,8.82,2.68,8.82,10.1v17.41h-2.62v-17c0-4.78-2-7.9-6.51-7.9-6.24,0-8.39,5.32-8.39,11.18v13.7h-2.63Z"/><path class="cls-3" d="M876.1,1033.24l-4.67,13h-2.89L882,1008.62h3.35l14.06,37.62h-3.09l-4.78-13Zm14.53-2.69c-4.09-11.18-6.19-16.55-6.93-19.08h-.05c-.89,2.85-3.25,9.51-6.56,19.08Z"/><path class="cls-3" d="M929,1006.63v31.87c0,2.58,0,5,0,7.74h-2.52c-.1-.64-.16-3.17-.16-4.51-1.31,3.27-4.24,5.16-8.81,5.16-6.82,0-10.91-5.7-10.91-13.76,0-8.28,4.46-14.4,11.59-14.4,5.25,0,7.35,2.31,8.13,4v-16.13ZM909.41,1033c0,7.36,3.72,11.34,8.24,11.34,6.92,0,8.81-4.89,8.81-12.2,0-6.93-1.63-10.91-8.34-10.91C912.92,1021.25,909.41,1025.5,909.41,1033Z"/><path class="cls-3" d="M940.78,1019.37c4.25,12.31,7.19,20.69,8.19,24.13h0c.57-2,3.51-10,8.6-24.13h2.78l-9.91,26.87h-3.15L938,1019.37Z"/><path class="cls-3" d="M986.69,1041.14a32.57,32.57,0,0,0,.36,5.1h-2.51a18.17,18.17,0,0,1-.48-4.14c-.89,2-3.2,4.79-8.6,4.79-6.09,0-8.71-4-8.71-8.07,0-5.91,4.46-8.59,12.33-8.59h5v-2.74c0-2.69-.78-6.29-6.76-6.29-5.3,0-6.09,2.85-6.67,5H968c.32-3,2.1-7.52,9.34-7.52,6,0,9.34,2.58,9.34,8.49Zm-2.57-8.6H979c-5.82,0-9.44,1.56-9.44,6.18,0,3.38,2.36,5.69,6,5.69,7.51,0,8.56-5.1,8.56-10.91Z"/><path class="cls-3" d="M999,1026.14c0-2.36,0-4.62-.05-6.77h2.57c.11.86.16,4.35.11,5.11,1.15-2.74,3.3-5.75,8.7-5.75,4.67,0,8.82,2.68,8.82,10.1v17.41h-2.63v-17c0-4.78-1.94-7.9-6.5-7.9-6.24,0-8.39,5.32-8.39,11.18v13.7H999Z"/><path class="cls-3" d="M1050.64,1038.34c-1.26,4.73-4.31,8.55-10.18,8.55-6.56,0-11.23-5-11.23-14,0-7.36,3.83-14.18,11.54-14.18a9.47,9.47,0,0,1,9.87,8.59H1048c-.79-3.11-2.78-6.07-7.24-6.07-5.56,0-8.71,4.84-8.71,11.56,0,6.39,2.94,11.55,8.45,11.55,3.83,0,6.14-2,7.5-6Z"/><path class="cls-3" d="M1061.18,1033.13c0,6.93,3.46,11.23,8.5,11.23s6.61-2.85,7.55-5h2.68c-1.1,3.55-3.88,7.58-10.33,7.58-8,0-11.07-7-11.07-13.87,0-7.68,3.72-14.29,11.38-14.29,8.08,0,10.65,7.14,10.65,12.19,0,.76,0,1.51,0,2.21Zm16.63-2.37c0-5.32-2.88-9.51-8-9.51-5.41,0-7.87,3.87-8.45,9.51Z"/><path class="cls-3" d="M1111.07,1006.63v31.87c0,2.58,0,5,0,7.74h-2.51c-.11-.64-.16-3.17-.16-4.51-1.31,3.27-4.25,5.16-8.82,5.16-6.82,0-10.91-5.7-10.91-13.76,0-8.28,4.46-14.4,11.6-14.4,5.24,0,7.34,2.31,8.13,4v-16.13ZM1091.5,1033c0,7.36,3.73,11.34,8.24,11.34,6.92,0,8.81-4.89,8.81-12.2,0-6.93-1.62-10.91-8.34-10.91C1095,1021.25,1091.5,1025.5,1091.5,1033Z"/><path class="cls-3" d="M1144.28,1028.67v17.57h-2.89v-37.62h13.17c7.24,0,11.07,4,11.07,9.89,0,4.78-2.78,7.9-6.87,8.81,3.78.92,6.29,3.44,6.29,9.84v1.45c0,2.63-.21,6.18.48,7.63h-2.89c-.68-1.61-.52-4.62-.52-7.85v-1c0-6.18-1.79-8.76-8.82-8.76Zm0-2.69h8.86c6.46,0,9.45-2.47,9.45-7.42,0-4.62-2.94-7.25-8.66-7.25h-9.65Z"/><path class="cls-3" d="M1178.06,1033.13c.06,6.93,3.47,11.23,8.5,11.23s6.61-2.85,7.56-5h2.67c-1.1,3.55-3.88,7.58-10.33,7.58-8,0-11.07-7-11.07-13.87,0-7.68,3.72-14.29,11.38-14.29,8.08,0,10.65,7.14,10.65,12.19,0,.76,0,1.51-.05,2.21Zm16.63-2.37c0-5.32-2.88-9.51-8-9.51-5.41,0-7.87,3.87-8.45,9.51Z"/><path class="cls-3" d="M1208.07,1038.82c.89,3.5,3.31,5.59,7.45,5.59,4.67,0,6.56-2.2,6.56-5.21s-1.26-4.57-7.14-6c-6.76-1.66-8.44-3.76-8.44-7.31,0-3.71,2.73-7.14,8.65-7.14s8.77,3.7,9.19,7.52h-2.63c-.47-2.26-2.2-5-6.66-5s-5.88,2.31-5.88,4.46c0,2.47,1.26,3.71,6.46,5,7.39,1.82,9.23,4.29,9.23,8.33,0,4.89-3.88,7.9-9.39,7.9-6,0-9.34-3.23-10.07-8.07Z"/><path class="cls-3" d="M1235.56,1033.13c0,6.93,3.46,11.23,8.5,11.23s6.61-2.85,7.55-5h2.68c-1.1,3.55-3.88,7.58-10.33,7.58-8,0-11.07-7-11.07-13.87,0-7.68,3.72-14.29,11.38-14.29,8.08,0,10.65,7.14,10.65,12.19,0,.76,0,1.51-.05,2.21Zm16.63-2.37c0-5.32-2.88-9.51-8-9.51-5.41,0-7.87,3.87-8.45,9.51Z"/><path class="cls-3" d="M1282.93,1041.14a31,31,0,0,0,.37,5.1h-2.52a18.41,18.41,0,0,1-.47-4.14c-.89,2-3.2,4.79-8.6,4.79-6.09,0-8.71-4-8.71-8.07,0-5.91,4.46-8.59,12.33-8.59h5v-2.74c0-2.69-.79-6.29-6.77-6.29-5.29,0-6.08,2.85-6.66,5h-2.62c.31-3,2.1-7.52,9.34-7.52,6,0,9.33,2.58,9.33,8.49Zm-2.57-8.6h-5.14c-5.82,0-9.44,1.56-9.44,6.18,0,3.38,2.36,5.69,6,5.69,7.5,0,8.55-5.1,8.55-10.91Z"/><path class="cls-3" d="M1295.21,1026.68c0-4.52,0-6.45,0-7.31h2.57c0,.86.1,2.58.1,6a10,10,0,0,1,9.13-6.66v2.9c-5.45.37-9.13,4.24-9.13,10.64v14h-2.62Z"/><path class="cls-3" d="M1334.71,1038.34c-1.26,4.73-4.3,8.55-10.17,8.55-6.56,0-11.23-5-11.23-14,0-7.36,3.83-14.18,11.54-14.18a9.46,9.46,0,0,1,9.86,8.59H1332c-.79-3.11-2.78-6.07-7.24-6.07-5.56,0-8.71,4.84-8.71,11.56,0,6.39,2.94,11.55,8.45,11.55,3.83,0,6.13-2,7.5-6Z"/><path class="cls-3" d="M1347,1006.63v17.25a9.13,9.13,0,0,1,8.66-5.15c3.72,0,8.86,1.93,8.86,10.42v17.09h-2.62v-16.55c0-5.32-2.36-8.33-6.71-8.33-5.2,0-8.19,3.28-8.19,9.89v15h-2.62v-39.61Z"/><path class="cls-3" d="M1394.05,1006.63h2.62v5.22h-2.62Zm0,12.74h2.62v26.87h-2.62Z"/><path class="cls-3" d="M1408.89,1026.14c0-2.36,0-4.62-.05-6.77h2.57c.11.86.16,4.35.11,5.11,1.15-2.74,3.3-5.75,8.7-5.75,4.67,0,8.82,2.68,8.82,10.1v17.41h-2.62v-17c0-4.78-2-7.9-6.51-7.9-6.24,0-8.39,5.32-8.39,11.18v13.7h-2.63Z"/><path class="cls-3" d="M1487.06,1036.19c-1.73,6-6,10.48-13.8,10.48-10.54,0-16.1-8.6-16.1-19.18,0-10.16,5.45-19.41,16.16-19.41,7.92,0,12.59,4.52,13.79,10.81h-2.83c-1.68-4.89-4.77-8.12-11.12-8.12-9.13,0-13,8.55-13,16.66S1464,1044,1473.37,1044c6,0,9-3.17,10.86-7.79Z"/><path class="cls-3" d="M1518.85,1032.75c0,7.47-4,14.14-11.85,14.14-7.09,0-11.49-6-11.49-14.08,0-7.69,4.14-14.08,11.75-14.08C1514.23,1018.73,1518.85,1024.31,1518.85,1032.75Zm-20.56.06c0,6.39,3.35,11.55,8.91,11.55s8.87-4.78,8.87-11.55c0-6.35-3.15-11.56-9-11.56C1501.12,1021.25,1498.29,1026.36,1498.29,1032.81Z"/><path class="cls-3" d="M1529,1026.3c0-2.31,0-4.83-.06-6.93h2.57c.06.91.16,3.22.11,4.78a8.21,8.21,0,0,1,7.87-5.42c3.67,0,6.56,1.88,7.61,5.32a8.9,8.9,0,0,1,8.55-5.32c4,0,8.23,2.36,8.23,9.83v17.68h-2.62v-17.36c0-3.6-1.26-7.52-6.14-7.52-5.09,0-7.39,4.19-7.39,9.4v15.48h-2.58v-17.3c0-3.93-1.15-7.58-6-7.58-5.08,0-7.55,4.62-7.55,10.1v14.78H1529Z"/><path class="cls-3" d="M1578.71,1042.26V1057h-2.62v-31c0-2.2,0-4.57-.06-6.61h2.57c.11,1,.11,2.63.11,4.84a9.6,9.6,0,0,1,9.23-5.48c6.19,0,10.49,5.32,10.49,13.38,0,9.67-5,14.78-11.38,14.78C1582.43,1046.89,1580,1044.79,1578.71,1042.26Zm16.94-10c0-6.23-2.93-10.9-8.13-10.9-6.34,0-9,4.08-9,11.39s2,11.66,8.61,11.66C1592.61,1044.36,1595.65,1039.63,1595.65,1032.21Z"/><path class="cls-3" d="M1628.23,1038.39c0,2.64.06,6.83.06,7.85h-2.52a42.56,42.56,0,0,1-.16-4.67c-1.1,3.17-3.78,5.32-8.45,5.32-3.77,0-8.6-1.51-8.6-9.73v-17.79h2.57v17.14c0,3.93,1.21,7.74,6.4,7.74,5.88,0,8.08-3.38,8.08-11.07v-13.81h2.62Z"/><path class="cls-3" d="M1637.15,1019.37H1642V1011h2.62v8.38h6.25v2.53h-6.25v17.46c0,3,.63,4.73,3.15,4.73a9.64,9.64,0,0,0,2.73-.32v2.36a8.91,8.91,0,0,1-3.25.49c-3.36,0-5.25-1.72-5.25-6v-18.7h-4.88Z"/><path class="cls-3" d="M1659.87,1006.63h2.62v5.22h-2.62Zm0,12.74h2.62v26.87h-2.62Z"/><path class="cls-3" d="M1674.71,1026.14c0-2.36,0-4.62,0-6.77h2.57c.11.86.16,4.35.11,5.11,1.15-2.74,3.3-5.75,8.71-5.75,4.66,0,8.81,2.68,8.81,10.1v17.41h-2.62v-17c0-4.78-2-7.9-6.51-7.9-6.24,0-8.39,5.32-8.39,11.18v13.7h-2.63Z"/><path class="cls-3" d="M1727.12,1044.41c0,8.6-3.72,13.12-11.33,13.12-6.82,0-9.65-3.93-10.28-8h2.67c1,3.71,3.94,5.48,7.72,5.48,6.82,0,8.7-4.51,8.7-11.34v-2.79c-1.41,3.49-4,5.37-8.76,5.37-6.13,0-10.86-5.1-10.86-13.43,0-9,5-14.08,11.23-14.08,5.35,0,7.66,2.58,8.39,4.72.06-1.55.11-3.43.16-4.08h2.47c0,1-.11,5.21-.11,7.79Zm-19.36-11.71c0,6.39,3.31,11,8.35,11,6.55,0,8.55-4.47,8.55-11.45s-2.1-11-8.4-11C1710.23,1021.25,1707.76,1026.57,1707.76,1032.7Z"/></svg>