<svg id="Layer_1" data-name="Layer 1" xmlns="http://www.w3.org/2000/svg" viewBox="0 0 1920 1080"><defs><style>.cls-1{fill:none;stroke:#fff;stroke-miterlimit:10;stroke-width:20px;}.cls-2{fill:#fff;}</style></defs><title>ICARC-Logo-white-svg-01</title><path class="cls-1" d="M161.05,379h49.88l61.44-75.8,35-65.07,89.74-12.23,40.79,35.89,192.53-90L702.21,237l45.68,4.35,311.93-207L1367.91,287l117.48,42.43,55.48,48.94,144.77.61"/><circle class="cls-1" cx="1698.65" cy="379.02" r="20.64"/><circle class="cls-1" cx="146.37" cy="378.96" r="20.37"/><path class="cls-1" d="M1317.12,245.56l2.56,99.18,65.92,25.47"/><circle class="cls-1" cx="1404.28" cy="378.96" r="20.64" transform="translate(-42.57 229.84) rotate(-9.22)"/><path class="cls-1" d="M1203.93,154.93V219l-52.23,12.88v77.81L1205.46,379h69.13"/><circle class="cls-1" cx="1287.66" cy="378.96" r="20.64" transform="translate(-44.08 211.15) rotate(-9.22)"/><path class="cls-1" d="M1105.57,71.87q.2,33.07.38,66.16l-46.42,23V307"/><circle class="cls-1" cx="1059.53" cy="324.88" r="20.64" transform="translate(-43.67 430.2) rotate(-22.5)"/><path class="cls-1" d="M976.56,89.6V274.76L873.6,366"/><circle class="cls-1" cx="857.55" cy="378.96" r="20.64" transform="translate(-79.74 357.02) rotate(-22.5)"/><path class="cls-1" d="M856.69,165.18q.07,32.25.16,64.51l35.33,18.43"/><circle class="cls-1" cx="904.44" cy="257.37" r="20.64" transform="translate(-29.64 365.71) rotate(-22.5)"/><path class="cls-1" d="M783.09,218V324.88L718.52,379"/><circle class="cls-1" cx="704.28" cy="389.3" r="20.64" transform="translate(-95.37 299.16) rotate(-22.5)"/><path class="cls-1" d="M660.5,199.09,660.15,307l-55.3,33V379"/><circle class="cls-1" cx="604.85" cy="396.19" r="20.64" transform="translate(-105.58 261.63) rotate(-22.5)"/><path class="cls-1" d="M522.47,224.24l-.57,49,30,25.23"/><circle class="cls-1" cx="563.37" cy="308.29" r="20.64" transform="translate(-75.09 239.06) rotate(-22.5)"/><path class="cls-1" d="M467,248.12v97.29l16.46,12.28"/><circle class="cls-1" cx="500.15" cy="370.15" r="20.64" transform="translate(-103.58 219.58) rotate(-22.5)"/><path class="cls-1" d="M365.83,230.12V289l42,28V396.5"/><path class="cls-1" d="M261.66,316.38l47.1,30.56v26.52"/><circle class="cls-1" cx="308.76" cy="394.11" r="20.64" transform="translate(-127.32 148.16) rotate(-22.5)"/><circle class="cls-1" cx="407.84" cy="414.75" r="20.64" transform="translate(-127.67 187.65) rotate(-22.5)"/><path class="cls-2" d="M223,474.76V961.64H130.29V474.76Z"/><path class="cls-2" d="M616.53,819.9C614.24,844.51,604.33,970,460.89,970,313.9,970,297,848.38,297,717.56,297,559.9,346.12,467,466.42,467,603.5,467,614.14,577.75,616.25,616.7H524.7C523.26,600.15,522,541,465,541c-58.12,0-72.27,67-72.27,178.42,0,91.81,9.72,178,69.71,178,55.16,0,59.58-58.8,61.88-77.45Z"/><path class="cls-2" d="M764,839.1,738.3,961.64H645.58L765.29,474.76H885.43l121,486.88H909.34L883.58,839.1Zm103.15-75.66c-19.28-93.19-34.72-161.29-42.85-207.78h-2.2c-6.29,44.82-22.67,118-41.71,207.78Z"/><path class="cls-2" d="M1143.59,754V961.64h-92V474.76h158.3c94,0,147.23,46.14,147.23,133,0,70.4-40,100.8-67,110.87,40,17.64,59,49.68,59,121.58v19.43c0,55.33,2.78,76,7,102h-89.54c-7.55-22.31-8.89-60.85-8.89-102.79V841.12c0-65.08-15.87-87.09-74.3-87.09Zm0-70.59H1187c55.9,0,77.75-22.65,77.75-71.86,0-41.93-21.27-66.22-68.64-66.22h-52.53Z"/><path class="cls-2" d="M1732.44,819.9C1730.15,844.51,1720.25,970,1576.8,970c-147,0-163.86-121.63-163.86-252.45C1412.94,559.9,1462,467,1582.33,467c137.09,0,147.73,110.73,149.84,149.68h-91.56C1639.17,600.15,1638,541,1580.9,541c-58.12,0-72.27,67-72.27,178.42,0,91.81,9.71,178,69.7,178,55.16,0,59.59-58.8,61.88-77.45Z"/><path class="cls-2" d="M147.09,1008v37.62h-2.83V1008Z"/><path class="cls-2" d="M159.74,1025.56c0-2.37,0-4.62-.05-6.77h2.57c.1.86.16,4.35.1,5.1,1.16-2.74,3.31-5.75,8.71-5.75,4.67,0,8.81,2.69,8.81,10.11v17.41h-2.62v-17c0-4.79-1.94-7.9-6.5-7.9-6.25,0-8.4,5.32-8.4,11.17v13.71h-2.62Z"/><path class="cls-2" d="M188,1018.79h4.87v-8.39h2.63v8.39h6.24v2.52h-6.24v17.47c0,3,.63,4.73,3.15,4.73a9.62,9.62,0,0,0,2.72-.32v2.36a8.91,8.91,0,0,1-3.25.48c-3.36,0-5.25-1.72-5.25-6v-18.71H188Z"/><path class="cls-2" d="M211,1032.54c.06,6.94,3.47,11.24,8.5,11.24s6.61-2.85,7.56-5h2.67c-1.1,3.54-3.88,7.57-10.33,7.57-8,0-11.07-7-11.07-13.86,0-7.69,3.72-14.3,11.38-14.3,8.08,0,10.65,7.15,10.65,12.2,0,.75,0,1.51,0,2.2Zm16.63-2.36c-.05-5.32-2.88-9.51-8-9.51-5.41,0-7.87,3.87-8.45,9.51Z"/><path class="cls-2" d="M240.37,1026.1c0-4.52-.05-6.45-.05-7.31h2.57c.05.86.11,2.58.11,6a10,10,0,0,1,9.12-6.67v2.9c-5.45.38-9.12,4.25-9.12,10.65v14h-2.63Z"/><path class="cls-2" d="M260.41,1025.56c0-2.37,0-4.62-.05-6.77h2.57c.11.86.16,4.35.11,5.1,1.15-2.74,3.3-5.75,8.7-5.75,4.67,0,8.82,2.69,8.82,10.11v17.41h-2.63v-17c0-4.79-1.94-7.9-6.5-7.9-6.24,0-8.39,5.32-8.39,11.17v13.71h-2.63Z"/><path class="cls-2" d="M310.46,1040.55a31.07,31.07,0,0,0,.37,5.11h-2.52a17.89,17.89,0,0,1-.47-4.14c-.89,2-3.2,4.78-8.61,4.78-6.08,0-8.7-4-8.7-8.06,0-5.91,4.45-8.6,12.32-8.6h5v-2.74c0-2.68-.79-6.29-6.77-6.29-5.3,0-6.09,2.85-6.66,5.06h-2.62c.31-3,2.09-7.53,9.33-7.53,6,0,9.34,2.58,9.34,8.49Zm-2.57-8.6h-5.14c-5.82,0-9.44,1.56-9.44,6.18,0,3.39,2.36,5.7,6,5.7,7.5,0,8.55-5.1,8.55-10.91Z"/><path class="cls-2" d="M318.54,1018.79h4.88v-8.39H326v8.39h6.25v2.52H326v17.47c0,3,.63,4.73,3.15,4.73a9.64,9.64,0,0,0,2.73-.32v2.36a8.91,8.91,0,0,1-3.25.48c-3.36,0-5.25-1.72-5.25-6v-18.71h-4.88Z"/><path class="cls-2" d="M341.26,1006.05h2.62v5.21h-2.62Zm0,12.74h2.62v26.87h-2.62Z"/><path class="cls-2" d="M377.35,1032.17c0,7.47-4,14.13-11.86,14.13-7.08,0-11.49-6-11.49-14.08,0-7.68,4.15-14.08,11.76-14.08C372.73,1018.14,377.35,1023.73,377.35,1032.17Zm-20.57,0c0,6.4,3.36,11.56,8.92,11.56s8.87-4.79,8.87-11.56c0-6.34-3.15-11.55-9-11.55C359.62,1020.67,356.78,1025.77,356.78,1032.22Z"/><path class="cls-2" d="M387.47,1025.56c0-2.37,0-4.62-.05-6.77H390c.11.86.16,4.35.11,5.1,1.15-2.74,3.3-5.75,8.71-5.75,4.66,0,8.81,2.69,8.81,10.11v17.41H405v-17c0-4.79-1.95-7.9-6.51-7.9-6.24,0-8.39,5.32-8.39,11.17v13.71h-2.63Z"/><path class="cls-2" d="M437.52,1040.55a31.07,31.07,0,0,0,.37,5.11h-2.52a17.89,17.89,0,0,1-.47-4.14c-.89,2-3.2,4.78-8.6,4.78-6.09,0-8.71-4-8.71-8.06,0-5.91,4.46-8.6,12.33-8.6h5v-2.74c0-2.68-.79-6.29-6.77-6.29-5.3,0-6.08,2.85-6.66,5.06h-2.62c.31-3,2.09-7.53,9.33-7.53,6,0,9.34,2.58,9.34,8.49ZM435,1032h-5.14c-5.82,0-9.44,1.56-9.44,6.18,0,3.39,2.36,5.7,6,5.7,7.5,0,8.55-5.1,8.55-10.91Z"/><path class="cls-2" d="M449.8,1045.66v-39.61h2.62v39.61Z"/><path class="cls-2" d="M510.44,1035.61c-1.73,6-6,10.48-13.79,10.48-10.55,0-16.11-8.6-16.11-19.19,0-10.15,5.46-19.4,16.16-19.4,7.92,0,12.59,4.52,13.8,10.8h-2.84c-1.68-4.89-4.77-8.11-11.12-8.11-9.13,0-13,8.54-13,16.66s3.78,16.55,13.17,16.55c6,0,9-3.17,10.86-7.79Z"/><path class="cls-2" d="M542.23,1032.17c0,7.47-4,14.13-11.85,14.13-7.08,0-11.49-6-11.49-14.08,0-7.68,4.14-14.08,11.75-14.08C537.62,1018.14,542.23,1023.73,542.23,1032.17Zm-20.56,0c0,6.4,3.36,11.56,8.92,11.56s8.86-4.79,8.86-11.56c0-6.34-3.14-11.55-9-11.55C524.5,1020.67,521.67,1025.77,521.67,1032.22Z"/><path class="cls-2" d="M552.36,1025.56c0-2.37,0-4.62-.05-6.77h2.57c.1.86.16,4.35.1,5.1,1.16-2.74,3.31-5.75,8.71-5.75,4.67,0,8.81,2.69,8.81,10.11v17.41h-2.62v-17c0-4.79-1.94-7.9-6.5-7.9-6.25,0-8.4,5.32-8.4,11.17v13.71h-2.62Z"/><path class="cls-2" d="M585.41,1045.66v-24.35H580.9v-2.52h4.51V1015c0-4.51,1.26-9.46,7.13-9.46a9.31,9.31,0,0,1,2.57.38v2.58a12.35,12.35,0,0,0-2.83-.32c-3.09,0-4.25,2.25-4.25,6.93v3.71h5.72v2.52H588v24.35Z"/><path class="cls-2" d="M602.09,1032.54c.06,6.94,3.46,11.24,8.5,11.24s6.61-2.85,7.56-5h2.67c-1.1,3.54-3.88,7.57-10.33,7.57-8,0-11.07-7-11.07-13.86,0-7.69,3.72-14.3,11.38-14.3,8.08,0,10.65,7.15,10.65,12.2,0,.75,0,1.51-.05,2.2Zm16.63-2.36c-.05-5.32-2.88-9.51-8-9.51-5.41,0-7.87,3.87-8.45,9.51Z"/><path class="cls-2" d="M631.47,1026.1c0-4.52-.05-6.45-.05-7.31H634c0,.86.1,2.58.1,6a10,10,0,0,1,9.13-6.67v2.9c-5.45.38-9.13,4.25-9.13,10.65v14h-2.62Z"/><path class="cls-2" d="M652.25,1032.54c0,6.94,3.46,11.24,8.49,11.24s6.61-2.85,7.56-5H671c-1.1,3.54-3.88,7.57-10.33,7.57-8,0-11.07-7-11.07-13.86,0-7.69,3.73-14.3,11.38-14.3,8.08,0,10.65,7.15,10.65,12.2,0,.75,0,1.51-.05,2.2Zm16.63-2.36c-.06-5.32-2.89-9.51-8-9.51-5.4,0-7.87,3.87-8.45,9.51Z"/><path class="cls-2" d="M681.62,1025.56c0-2.37,0-4.62,0-6.77h2.57c.11.86.16,4.35.11,5.1,1.15-2.74,3.3-5.75,8.71-5.75,4.66,0,8.81,2.69,8.81,10.11v17.41h-2.62v-17c0-4.79-1.95-7.9-6.51-7.9-6.24,0-8.39,5.32-8.39,11.17v13.71h-2.63Z"/><path class="cls-2" d="M733.3,1037.76c-1.26,4.73-4.3,8.54-10.18,8.54-6.56,0-11.23-5-11.23-14,0-7.36,3.83-14.19,11.55-14.19a9.47,9.47,0,0,1,9.86,8.6h-2.68c-.78-3.12-2.78-6.07-7.24-6.07-5.56,0-8.71,4.83-8.71,11.55,0,6.4,2.94,11.56,8.45,11.56,3.83,0,6.14-2,7.5-6Z"/><path class="cls-2" d="M743.84,1032.54c.06,6.94,3.46,11.24,8.5,11.24s6.61-2.85,7.56-5h2.67c-1.1,3.54-3.88,7.57-10.33,7.57-8,0-11.07-7-11.07-13.86,0-7.69,3.72-14.3,11.38-14.3,8.08,0,10.65,7.15,10.65,12.2,0,.75,0,1.51-.05,2.2Zm16.63-2.36c-.05-5.32-2.88-9.51-8-9.51-5.41,0-7.87,3.87-8.45,9.51Z"/><path class="cls-2" d="M811.73,1032.17c0,7.47-4,14.13-11.86,14.13-7.08,0-11.49-6-11.49-14.08,0-7.68,4.15-14.08,11.75-14.08C807.11,1018.14,811.73,1023.73,811.73,1032.17Zm-20.57,0c0,6.4,3.36,11.56,8.92,11.56S809,1039,809,1032.22c0-6.34-3.15-11.55-9-11.55C794,1020.67,791.16,1025.77,791.16,1032.22Z"/><path class="cls-2" d="M821.85,1025.56c0-2.37,0-4.62-.05-6.77h2.57c.11.86.16,4.35.11,5.1,1.15-2.74,3.3-5.75,8.7-5.75,4.67,0,8.82,2.69,8.82,10.11v17.41h-2.62v-17c0-4.79-2-7.9-6.51-7.9-6.24,0-8.39,5.32-8.39,11.17v13.71h-2.63Z"/><path class="cls-2" d="M876.1,1032.65l-4.67,13h-2.89L882,1008h3.35l14.06,37.62h-3.09l-4.78-13Zm14.53-2.68c-4.09-11.18-6.19-16.56-6.93-19.08h-.05c-.89,2.85-3.25,9.51-6.56,19.08Z"/><path class="cls-2" d="M929,1006.05v31.87c0,2.58,0,5,0,7.74h-2.52c-.1-.65-.16-3.17-.16-4.52-1.31,3.28-4.24,5.16-8.81,5.16-6.82,0-10.91-5.69-10.91-13.76,0-8.27,4.46-14.4,11.59-14.4,5.25,0,7.35,2.31,8.13,4v-16.12Zm-19.57,26.39c0,7.36,3.72,11.34,8.24,11.34,6.92,0,8.81-4.89,8.81-12.2,0-6.93-1.63-10.91-8.34-10.91C912.92,1020.67,909.41,1024.91,909.41,1032.44Z"/><path class="cls-2" d="M940.78,1018.79c4.25,12.3,7.19,20.69,8.19,24.13h0c.57-2,3.51-10,8.6-24.13h2.78l-9.91,26.87h-3.15L938,1018.79Z"/><path class="cls-2" d="M986.69,1040.55a32.62,32.62,0,0,0,.36,5.11h-2.51a18.26,18.26,0,0,1-.48-4.14c-.89,2-3.2,4.78-8.6,4.78-6.09,0-8.71-4-8.71-8.06,0-5.91,4.46-8.6,12.33-8.6h5v-2.74c0-2.68-.78-6.29-6.76-6.29-5.3,0-6.09,2.85-6.67,5.06H968c.32-3,2.1-7.53,9.34-7.53,6,0,9.34,2.58,9.34,8.49Zm-2.57-8.6H979c-5.82,0-9.44,1.56-9.44,6.18,0,3.39,2.36,5.7,6,5.7,7.51,0,8.56-5.1,8.56-10.91Z"/><path class="cls-2" d="M999,1025.56c0-2.37,0-4.62-.05-6.77h2.57c.11.86.16,4.35.11,5.1,1.15-2.74,3.3-5.75,8.7-5.75,4.67,0,8.82,2.69,8.82,10.11v17.41h-2.63v-17c0-4.79-1.94-7.9-6.5-7.9-6.24,0-8.39,5.32-8.39,11.17v13.71H999Z"/><path class="cls-2" d="M1050.64,1037.76c-1.26,4.73-4.31,8.54-10.18,8.54-6.56,0-11.23-5-11.23-14,0-7.36,3.83-14.19,11.54-14.19a9.48,9.48,0,0,1,9.87,8.6H1048c-.79-3.12-2.78-6.07-7.24-6.07-5.56,0-8.71,4.83-8.71,11.55,0,6.4,2.94,11.56,8.45,11.56,3.83,0,6.14-2,7.5-6Z"/><path class="cls-2" d="M1061.18,1032.54c0,6.94,3.46,11.24,8.5,11.24s6.61-2.85,7.55-5h2.68c-1.1,3.54-3.88,7.57-10.33,7.57-8,0-11.07-7-11.07-13.86,0-7.69,3.72-14.3,11.38-14.3,8.08,0,10.65,7.15,10.65,12.2,0,.75,0,1.51,0,2.2Zm16.63-2.36c0-5.32-2.88-9.51-8-9.51-5.41,0-7.87,3.87-8.45,9.51Z"/><path class="cls-2" d="M1111.07,1006.05v31.87c0,2.58,0,5,0,7.74h-2.51c-.11-.65-.16-3.17-.16-4.52-1.31,3.28-4.25,5.16-8.82,5.16-6.82,0-10.91-5.69-10.91-13.76,0-8.27,4.46-14.4,11.6-14.4,5.24,0,7.34,2.31,8.13,4v-16.12Zm-19.57,26.39c0,7.36,3.73,11.34,8.24,11.34,6.92,0,8.81-4.89,8.81-12.2,0-6.93-1.62-10.91-8.34-10.91C1095,1020.67,1091.5,1024.91,1091.5,1032.44Z"/><path class="cls-2" d="M1144.28,1028.09v17.57h-2.89V1008h13.17c7.24,0,11.07,4,11.07,9.89,0,4.78-2.78,7.9-6.87,8.81,3.78.92,6.29,3.44,6.29,9.84V1038c0,2.63-.21,6.18.48,7.63h-2.89c-.68-1.61-.52-4.62-.52-7.85v-1c0-6.18-1.79-8.75-8.82-8.75Zm0-2.69h8.86c6.46,0,9.45-2.47,9.45-7.42,0-4.62-2.94-7.25-8.66-7.25h-9.65Z"/><path class="cls-2" d="M1178.06,1032.54c.06,6.94,3.47,11.24,8.5,11.24s6.61-2.85,7.56-5h2.67c-1.1,3.54-3.88,7.57-10.33,7.57-8,0-11.07-7-11.07-13.86,0-7.69,3.72-14.3,11.38-14.3,8.08,0,10.65,7.15,10.65,12.2,0,.75,0,1.51-.05,2.2Zm16.63-2.36c0-5.32-2.88-9.51-8-9.51-5.41,0-7.87,3.87-8.45,9.51Z"/><path class="cls-2" d="M1208.07,1038.24c.89,3.5,3.31,5.59,7.45,5.59,4.67,0,6.56-2.2,6.56-5.21s-1.26-4.57-7.14-6c-6.76-1.67-8.44-3.76-8.44-7.31,0-3.71,2.73-7.15,8.65-7.15s8.77,3.71,9.19,7.53h-2.63c-.47-2.26-2.2-5.06-6.66-5.06s-5.88,2.32-5.88,4.47c0,2.47,1.26,3.7,6.46,5,7.39,1.83,9.23,4.3,9.23,8.33,0,4.89-3.88,7.9-9.39,7.9-6,0-9.34-3.22-10.07-8.06Z"/><path class="cls-2" d="M1235.56,1032.54c0,6.94,3.46,11.24,8.5,11.24s6.61-2.85,7.55-5h2.68c-1.1,3.54-3.88,7.57-10.33,7.57-8,0-11.07-7-11.07-13.86,0-7.69,3.72-14.3,11.38-14.3,8.08,0,10.65,7.15,10.65,12.2,0,.75,0,1.51-.05,2.2Zm16.63-2.36c0-5.32-2.88-9.51-8-9.51-5.41,0-7.87,3.87-8.45,9.51Z"/><path class="cls-2" d="M1282.93,1040.55a31.07,31.07,0,0,0,.37,5.11h-2.52a18.5,18.5,0,0,1-.47-4.14c-.89,2-3.2,4.78-8.6,4.78-6.09,0-8.71-4-8.71-8.06,0-5.91,4.46-8.6,12.33-8.6h5v-2.74c0-2.68-.79-6.29-6.77-6.29-5.29,0-6.08,2.85-6.66,5.06h-2.62c.31-3,2.1-7.53,9.34-7.53,6,0,9.33,2.58,9.33,8.49Zm-2.57-8.6h-5.14c-5.82,0-9.44,1.56-9.44,6.18,0,3.39,2.36,5.7,6,5.7,7.5,0,8.55-5.1,8.55-10.91Z"/><path class="cls-2" d="M1295.21,1026.1c0-4.52,0-6.45,0-7.31h2.57c0,.86.1,2.58.1,6a10,10,0,0,1,9.13-6.67v2.9c-5.45.38-9.13,4.25-9.13,10.65v14h-2.62Z"/><path class="cls-2" d="M1334.71,1037.76c-1.26,4.73-4.3,8.54-10.17,8.54-6.56,0-11.23-5-11.23-14,0-7.36,3.83-14.19,11.54-14.19a9.47,9.47,0,0,1,9.86,8.6H1332c-.79-3.12-2.78-6.07-7.24-6.07-5.56,0-8.71,4.83-8.71,11.55,0,6.4,2.94,11.56,8.45,11.56,3.83,0,6.13-2,7.5-6Z"/><path class="cls-2" d="M1347,1006.05v17.25a9.14,9.14,0,0,1,8.66-5.16c3.72,0,8.86,1.94,8.86,10.43v17.09h-2.62v-16.55c0-5.32-2.36-8.33-6.71-8.33-5.2,0-8.19,3.27-8.19,9.88v15h-2.62v-39.61Z"/><path class="cls-2" d="M1394.05,1006.05h2.62v5.21h-2.62Zm0,12.74h2.62v26.87h-2.62Z"/><path class="cls-2" d="M1408.89,1025.56c0-2.37,0-4.62-.05-6.77h2.57c.11.86.16,4.35.11,5.1,1.15-2.74,3.3-5.75,8.7-5.75,4.67,0,8.82,2.69,8.82,10.11v17.41h-2.62v-17c0-4.79-2-7.9-6.51-7.9-6.24,0-8.39,5.32-8.39,11.17v13.71h-2.63Z"/><path class="cls-2" d="M1487.06,1035.61c-1.73,6-6,10.48-13.8,10.48-10.54,0-16.1-8.6-16.1-19.19,0-10.15,5.45-19.4,16.16-19.4,7.92,0,12.59,4.52,13.79,10.8h-2.83c-1.68-4.89-4.77-8.11-11.12-8.11-9.13,0-13,8.54-13,16.66s3.78,16.55,13.17,16.55c6,0,9-3.17,10.86-7.79Z"/><path class="cls-2" d="M1518.85,1032.17c0,7.47-4,14.13-11.85,14.13-7.09,0-11.49-6-11.49-14.08,0-7.68,4.14-14.08,11.75-14.08C1514.23,1018.14,1518.85,1023.73,1518.85,1032.17Zm-20.56,0c0,6.4,3.35,11.56,8.91,11.56s8.87-4.79,8.87-11.56c0-6.34-3.15-11.55-9-11.55C1501.12,1020.67,1498.29,1025.77,1498.29,1032.22Z"/><path class="cls-2" d="M1529,1025.72c0-2.31,0-4.84-.06-6.93h2.57c.06.91.16,3.22.11,4.78a8.21,8.21,0,0,1,7.87-5.43c3.67,0,6.56,1.88,7.61,5.32a8.91,8.91,0,0,1,8.55-5.32c4,0,8.23,2.37,8.23,9.84v17.68h-2.62V1028.3c0-3.6-1.26-7.52-6.14-7.52-5.09,0-7.39,4.19-7.39,9.4v15.48h-2.58v-17.31c0-3.92-1.15-7.57-6-7.57-5.08,0-7.55,4.62-7.55,10.1v14.78H1529Z"/><path class="cls-2" d="M1578.71,1041.68v14.73h-2.62v-31c0-2.21,0-4.57-.06-6.61h2.57c.11,1,.11,2.63.11,4.83a9.62,9.62,0,0,1,9.23-5.48c6.19,0,10.49,5.32,10.49,13.38,0,9.68-5,14.78-11.38,14.78C1582.43,1046.3,1580,1044.21,1578.71,1041.68Zm16.94-10c0-6.23-2.93-10.91-8.13-10.91-6.34,0-9,4.09-9,11.4s2,11.66,8.61,11.66C1592.61,1043.78,1595.65,1039.05,1595.65,1031.63Z"/><path class="cls-2" d="M1628.23,1037.81c0,2.64.06,6.83.06,7.85h-2.52a42.65,42.65,0,0,1-.16-4.68c-1.1,3.17-3.78,5.32-8.45,5.32-3.77,0-8.6-1.5-8.6-9.72v-17.79h2.57v17.14c0,3.92,1.21,7.74,6.4,7.74,5.88,0,8.08-3.39,8.08-11.07v-13.81h2.62Z"/><path class="cls-2" d="M1637.15,1018.79H1642v-8.39h2.62v8.39h6.25v2.52h-6.25v17.47c0,3,.63,4.73,3.15,4.73a9.64,9.64,0,0,0,2.73-.32v2.36a8.91,8.91,0,0,1-3.25.48c-3.36,0-5.25-1.72-5.25-6v-18.71h-4.88Z"/><path class="cls-2" d="M1659.87,1006.05h2.62v5.21h-2.62Zm0,12.74h2.62v26.87h-2.62Z"/><path class="cls-2" d="M1674.71,1025.56c0-2.37,0-4.62,0-6.77h2.57c.11.86.16,4.35.11,5.1,1.15-2.74,3.3-5.75,8.71-5.75,4.66,0,8.81,2.69,8.81,10.11v17.41h-2.62v-17c0-4.79-2-7.9-6.51-7.9-6.24,0-8.39,5.32-8.39,11.17v13.71h-2.63Z"/><path class="cls-2" d="M1727.12,1043.83c0,8.6-3.72,13.11-11.33,13.11-6.82,0-9.65-3.92-10.28-8h2.67c1,3.7,3.94,5.48,7.72,5.48,6.82,0,8.7-4.52,8.7-11.34v-2.8c-1.41,3.5-4,5.38-8.76,5.38-6.13,0-10.86-5.11-10.86-13.44,0-9,5-14.08,11.23-14.08,5.35,0,7.66,2.58,8.39,4.73.06-1.56.11-3.44.16-4.08h2.47c0,1-.11,5.21-.11,7.79Zm-19.36-11.71c0,6.39,3.31,11,8.35,11,6.55,0,8.55-4.46,8.55-11.44s-2.1-11-8.4-11C1710.23,1020.67,1707.76,1026,1707.76,1032.12Z"/></svg>